<svg xmlns="http://www.w3.org/2000/svg" version="1.1" xmlns:xlink="http://www.w3.org/1999/xlink" width="334.03" height="330.64"><svg id="SvgjsSvg1015" data-name="Calque 1" xmlns="http://www.w3.org/2000/svg" xmlns:xlink="http://www.w3.org/1999/xlink" viewBox="0 0 334.03 330.64">
  <defs>
    <style>
      .cls-1 {
        fill: url(#Dégradé_sans_nom_25);
      }

      .cls-2 {
        fill: url(#Dégradé_sans_nom_88);
      }

      .cls-3 {
        fill: url(#Dégradés_2);
      }

      .cls-4 {
        fill: url(#Dégradé_sans_nom_142);
        stroke: url(#Dégradés_6);
      }

      .cls-4, .cls-5 {
        stroke-miterlimit: 10;
      }

      .cls-5 {
        fill: url(#Dégradés_4);
        stroke: url(#Dégradés_4-2);
      }

      .cls-6 {
        fill: #ed6a1d;
      }
    </style>
    <linearGradient id="SvgjsLinearGradient1014" data-name="Dégradé sans nom 25" x1="115.96" y1="165.32" x2="449.98" y2="165.32" gradientUnits="userSpaceOnUse">
      <stop offset="0" stop-color="#ed6a1d"></stop>
      <stop offset=".15" stop-color="#d05b2b"></stop>
      <stop offset=".43" stop-color="#9f4243"></stop>
      <stop offset=".67" stop-color="#7c3055"></stop>
      <stop offset=".87" stop-color="#662560"></stop>
      <stop offset="1" stop-color="#5f2264"></stop>
    </linearGradient>
    <linearGradient id="SvgjsLinearGradient1013" data-name="Dégradé sans nom 88" x1="52.03" y1="235.98" x2="315.46" y2="235.98" gradientUnits="userSpaceOnUse">
      <stop offset="0" stop-color="#ed6a1d"></stop>
      <stop offset=".31" stop-color="#ab483d"></stop>
      <stop offset=".65" stop-color="#5f2264"></stop>
      <stop offset=".69" stop-color="#602668"></stop>
      <stop offset=".75" stop-color="#633473"></stop>
      <stop offset=".81" stop-color="#6a4c87"></stop>
      <stop offset=".87" stop-color="#726da2"></stop>
      <stop offset=".93" stop-color="#7d97c5"></stop>
      <stop offset="1" stop-color="#8bcaef"></stop>
      <stop offset="1" stop-color="#8ccdf2"></stop>
    </linearGradient>
    <linearGradient id="SvgjsLinearGradient1012" data-name="Dégradés 2" x1="11.12" y1="138.86" x2="248.56" y2="138.86" gradientUnits="userSpaceOnUse">
      <stop offset="0" stop-color="#ed6a1d"></stop>
      <stop offset=".15" stop-color="#d05b2b"></stop>
      <stop offset=".43" stop-color="#9f4243"></stop>
      <stop offset=".67" stop-color="#7c3055"></stop>
      <stop offset=".87" stop-color="#662560"></stop>
      <stop offset="1" stop-color="#5f2264"></stop>
    </linearGradient>
    <linearGradient id="SvgjsLinearGradient1011" data-name="Dégradés 4" x1="72.42" y1="216.63" x2="269.23" y2="216.63" gradientUnits="userSpaceOnUse">
      <stop offset="0" stop-color="#ed6a1d"></stop>
      <stop offset=".31" stop-color="#ab483d"></stop>
      <stop offset=".65" stop-color="#5f2264"></stop>
      <stop offset=".69" stop-color="#602668"></stop>
      <stop offset=".75" stop-color="#633473"></stop>
      <stop offset=".81" stop-color="#6a4c87"></stop>
      <stop offset=".87" stop-color="#726da2"></stop>
      <stop offset=".93" stop-color="#7d97c5"></stop>
      <stop offset="1" stop-color="#8bcaef"></stop>
      <stop offset="1" stop-color="#8ccdf2"></stop>
    </linearGradient>
    <linearGradient id="SvgjsLinearGradient1010" data-name="Dégradés 4" x1="71.92" x2="269.73" xlink:href="#Dégradés_4"></linearGradient>
    <linearGradient id="SvgjsLinearGradient1009" data-name="Dégradé sans nom 142" x1="213.04" y1="83.39" x2="330.78" y2="83.39" gradientUnits="userSpaceOnUse">
      <stop offset="0" stop-color="#b4484a"></stop>
      <stop offset=".03" stop-color="#af454b"></stop>
      <stop offset=".65" stop-color="#5f2264"></stop>
      <stop offset=".69" stop-color="#602668"></stop>
      <stop offset=".75" stop-color="#633473"></stop>
      <stop offset=".81" stop-color="#6a4c87"></stop>
      <stop offset=".87" stop-color="#726da2"></stop>
      <stop offset=".93" stop-color="#7d97c5"></stop>
      <stop offset="1" stop-color="#8bcaef"></stop>
      <stop offset="1" stop-color="#8ccdf2"></stop>
    </linearGradient>
    <linearGradient id="SvgjsLinearGradient1008" data-name="Dégradés 6" x1="212.54" y1="83.39" x2="331.35" y2="83.39" gradientUnits="userSpaceOnUse">
      <stop offset="0" stop-color="#b4484a"></stop>
      <stop offset=".03" stop-color="#af454b"></stop>
      <stop offset=".65" stop-color="#5f2264"></stop>
      <stop offset=".69" stop-color="#602668"></stop>
      <stop offset=".75" stop-color="#633473"></stop>
      <stop offset=".81" stop-color="#6a4c87"></stop>
      <stop offset=".87" stop-color="#726da2"></stop>
      <stop offset=".93" stop-color="#7d97c5"></stop>
      <stop offset="1" stop-color="#8bcaef"></stop>
      <stop offset="1" stop-color="#8ccdf2"></stop>
    </linearGradient>
  </defs>
  <path class="cls-1" d="M331.53,142.92c-.04-.13-.09-.32-.16-.54-.81-2.38-2.75-4.62-5.05-5.49-1.95-.74-3.79-.4-4.5-.18-4.27,1.33-10.71,2.82-18.61,2.7-10.83-.16-18.77-3.26-21.3-4.31-4.75-1.98-13.33-5.57-20.22-14.56-5.78-7.54-7.67-15.36-8.36-19.96-1.84-1.63-4.59-4.12-7.82-7.28-7.6-7.45-12-11.76-15.64-18.07-4.11-7.13-5.38-13.56-5.66-15.1-1-5.4-3.18-17.12,2.43-26.7.89-1.51,4.03-6.51,4.88-12.78.16-1.16.27-2.61-.3-4.21-.41-1.16-1.67-3.76-6.47-5.93C200.47-.48,171.62,0,171.62,0c-14.19.24-24.93.42-39.64,3.51-31.69,6.66-53.68,20.9-62.29,26.97-31.6,22.24-46.81,49.47-51.51,58.52C1.6,120.95-.59,151.34.11,170.43c1.45,39.04,16.41,67.72,25.35,81.98,20.29,32.37,46.59,49.63,60.67,57.44,28.93,16.05,55.12,19.33,64.99,20.22,8.43.76,43.17,3.23,82.79-14.29,43.46-19.22,65.94-50.61,70.65-57.44,0,0,18.24-26.4,25.89-61.75,1.9-8.8,4.86-23.05,2.97-41.53-.52-5.04-1.27-9.2-1.89-12.13-2.8,1.96-7.16,4.59-12.94,6.47-7.5,2.45-8.15,2.53-17.86,1.97-6.7-.39-10.79-.43-13.94-1.07-1.86-.38-5.72-.86-12.21-2.77-4.31-1.27-5.78-1.96-8.52-2.74-8.29-2.35-9.89-2.34-13.6-2.78,0,0-4.49-.54-5.2-.6-13.62-1.3-27.13,5.4-30.6,7.17-2.85,1.45-16.81,8.78-28.04,24.2-2.71,3.73-5.58,8.98-11.33,19.48-6.88,12.58-7.67,15.27-10.78,20.76-3.25,5.76-12,20.87-29.13,32.63-5.3,3.64-17.98,12.13-36.67,14.29-6.1.71-15.14,1.01-25.62-1.35-6.94-1.56-31.55-8.11-45.57-30.47-2.04-3.25-3.91-6.93-6.2-13.21-12.25-33.62-8.82-66.29-8.63-67.96,5.45-47.31,33.22-77.73,42.88-87.37,5.4-5.39,16.96-16.09,33.98-25.35,48.59-26.42,99.47-18.11,119.19-13.75-3.32,5.17-9.5,14.6-10.25,32.09-.17,4.04-.15,13.02,3.51,23.46,6.92,19.78,21.9,30.49,27.78,34.25,1.22,4.63,3.13,10.31,6.2,16.45,3.03,6.06,6.36,10.94,9.3,14.67,8.83.71,15.56,2.37,20.1,3.77,3.95,1.22,6.23,2.23,11.63,3.54,2.35.57,7.09,1.63,13.25,2.33,5.18.58,8.85.99,13.86.64,8.15-.58,13.94-2.77,15.16-3.25,4.46-1.73,7.9-3.84,10.28-5.52Z"></path>
  <path class="cls-2" d="M315.15,162.75s-.1.02-.27.08c-.09.03-.22.07-.4.12,0,0,0,0,0,0-6.85,2-12.93,2.54-18.13,2.37-1.04-.03-1.76-.1-2.86-.19,0,0-5.32-.43-10.48-1.44-5.61-1.1-8.83-2.51-13.56-3.98-1.78-.55-10.24-3.27-18.4-3.84-12.57-.89-22.25,2.31-24.88,3.24-13.13,4.62-21.07,12.65-24.88,16.58-5.59,5.78-9.05,11.81-15.98,23.87-7.77,13.52-7.7,15.84-13.35,24.88-2.8,4.48-8.93,14.16-18.81,23.66-6.42,6.18-19.38,18.36-39.64,24.07-14.4,4.06-27.37,3.4-31.34,3.16-1.93-.11-3.66-.28-5.01-.43-1.18-.13-2.06-.25-2.48-.31,0,0-.92-.13-1.84-.27-8.34-1.33-16.28-4.09-16.28-4.09-1.1-.38-2.67-.95-4.53-1.71,3.23,3.59,7.74,8.23,13.55,13.15,3.63,3.07,14.37,11.83,30.54,19.62,7.04,3.39,20.63,9.25,38.83,12.54,6.26,1.13,18.97,3.02,35.19,2.22,18.48-.91,32.36-4.85,37.62-6.47,7.17-2.21,26.85-8.86,47.73-24.88,1.65-1.27,4.1-3.17,7.07-5.7,28.39-24.23,40.59-54.07,42.48-58.81,7.96-19.95,10.12-38.23,10.42-51.57,0-4.6-.14-5.85-.31-5.87Z"></path>
  <path class="cls-3" d="M211.46,20.3c-2.9-2.43-37.49-4.57-37.49-4.57,0,0-28.48-.38-47.27,4.57-37.91,9.99-60.99,30.29-65.77,34.62-1.17,1.06-2.91,2.69-4.99,4.74-3.47,3.42-39.95,42.92-44.3,96.38-2.74,33.66,5.76,56.07,15.82,73.28s24.08,23.11,29.08,25.53c30.22,14.67,60.42,2.65,66.62,0,21.76-9.31,36.32-26.74,43.4-40.73,2.42-4.78,3.15-7.55,7.71-16.27,6.21-11.87,11.41-21.81,21-31.76,4.4-4.56,11.15-11.46,22.2-16.84,12.6-6.15,24.28-7.16,31.07-7.22-2.71-3.04-5.77-7.03-8.56-12.04-4.11-7.36-6.13-14.22-7.18-19.29-5.41-3.29-14.53-9.88-21.74-21.33-6.78-13.11-10.28-21.12-10-35.63.34-17.38,10.69-31.77,10.38-33.44Z"></path>
  <path class="cls-6" d="M57.94,88.77c.05-.3.1-.74.23-1.31,1.09-4.81,5.86-9.75,6.85-10.76,4.73-4.85,8.92-7.54,12.54-9.84,5.57-3.53,8.13-4.25,10.58-3.71.59.13,2.23.51,3.51,1.89,2.28,2.47,1.62,6.26,1.49,6.91-1.16,5.87-8.27,5.22-15.78,12.51-7.02,6.81-7.17,13.4-12.39,13.98-2.1.24-4.34-.69-5.66-2.14-2.15-2.37-1.62-5.85-1.37-7.53Z"></path>
  <path class="cls-5" d="M269.23,159.71c.1-.84-8.7-3.16-18.4-3.84-12.57-.89-22.25,2.31-24.88,3.24-13.13,4.62-21.07,12.65-24.88,16.58-5.59,5.78-9.05,11.81-15.98,23.87-7.77,13.52-7.7,15.84-13.35,24.88-2.71,4.33-8.93,14.2-18.81,23.66-17.08,16.34-35.1,21.92-47.12,25.64,0,0-18.41,5.7-33.19.58-.01,0-.21-.07-.2-.11.06-.3,12.89,3.48,26.1,3.34,6.86-.07,11.99-1.18,15.59-1.98,2.99-.66,17.08-3.95,32.56-14.58,5.37-3.69,12.55-9.39,19.7-17.76,1.2-1.32,2.97-3.34,4.98-5.91,9.59-12.21,14.09-23.26,15.51-26.52.06-.14.18-.42.35-.81,11.54-26.25,30.49-39.56,30.49-39.56,2.35-1.63,4.89-3.38,8.65-5.12,2.15-.99,9.66-4.29,26.3-5.21,10.68-.59,16.5.28,16.59-.4Z"></path>
  <path class="cls-4" d="M229.76,15.45c-3.28-1.06-16.57,17.01-16.72,37.75-.12,17.36,9,29.85,12.4,34.52,6.16,8.43,13.11,13.71,17.8,16.72,1.74,5.62,8.18,23.91,26.97,36.13,3.65,2.38,24.28,15.27,48.54,9.17,5.86-1.47,8.99-2.89,12.03-4.61-.21-.91-.23-4.71-2.55-6.71-1.66-1.42-3.04-2.62-4.85-2.22-4.66,1.41-10.48,3.6-19.19,3.29-6.25-.22-21.97-.78-35.06-12.6-10.9-9.84-14.09-22.17-15.1-27.31-4.61-2.61-12.23-6.53-19.21-17.48-6.66-10.45-9.48-22.2-9.92-25.9-1.84-15.6,5.44-26.8,7.96-31.77.48-6.23-2.3-8.72-3.11-8.98Z"></path>
</svg><style>@media (prefers-color-scheme: light) { :root { filter: none; } }
@media (prefers-color-scheme: dark) { :root { filter: none; } }
</style></svg>